<?xml version="1.0" encoding="utf-8"?><svg xmlns="http://www.w3.org/2000/svg" xmlns:xlink="http://www.w3.org/1999/xlink"><symbol viewBox="0 0 81 96" id="intro_diskette" xmlns="http://www.w3.org/2000/svg"><g filter="url(#afilter0_d)"><circle cx="31.69" cy="73.411" r="7" transform="rotate(-15 31.69 73.41)"/><path d="M30.997 32.185l28.978-7.765 7.764 28.978-28.978 7.765z"/><g filter="url(#afilter1_d)"><path d="M43.105 31.011l5.795-1.553 2.071 7.728-5.796 1.552z"/></g></g><defs><filter id="afilter0_d" x="17.892" y="19.196" width="63.072" height="76.013" filterUnits="userSpaceOnUse" color-interpolation-filters="sRGB"><feFlood flood-opacity="0" result="BackgroundImageFix"/><feColorMatrix in="SourceAlpha" values="0 0 0 0 0 0 0 0 0 0 0 0 0 0 0 0 0 0 127 0"/><feOffset dx="4" dy="4"/><feGaussianBlur stdDeviation="4"/><feColorMatrix values="0 0 0 0 0.65098 0 0 0 0 0.670588 0 0 0 0 0.741176 0 0 0 1 0"/><feBlend in2="BackgroundImageFix" result="effect1_dropShadow"/><feBlend in="SourceGraphic" in2="effect1_dropShadow" result="shape"/></filter><filter id="afilter1_d" x="39.88" y="26.234" width="18.316" height="19.73" filterUnits="userSpaceOnUse" color-interpolation-filters="sRGB"><feFlood flood-opacity="0" result="BackgroundImageFix"/><feColorMatrix in="SourceAlpha" values="0 0 0 0 0 0 0 0 0 0 0 0 0 0 0 0 0 0 127 0"/><feOffset dx="2" dy="2"/><feGaussianBlur stdDeviation="2"/><feColorMatrix values="0 0 0 0 0 0 0 0 0 0.764706 0 0 0 0 0.407843 0 0 0 0.4 0"/><feBlend in2="BackgroundImageFix" result="effect1_dropShadow"/><feBlend in="SourceGraphic" in2="effect1_dropShadow" result="shape"/></filter></defs></symbol><symbol viewBox="0 0 73 88" id="intro_folder" xmlns="http://www.w3.org/2000/svg"><g filter="url(#bfilter0_d)"><rect x="5.5" y="5" width="54" height="70" rx="3"/><path d="M13.5 5h38v5a3 3 0 01-3 3h-32a3 3 0 01-3-3V5z"/><g filter="url(#bfilter1_d)"><path d="M13.5 61a3 3 0 013-3h32a3 3 0 013 3v2a3 3 0 01-3 3h-32a3 3 0 01-3-3v-2z"/></g></g><defs><filter id="bfilter0_d" x=".5" y="0" width="72" height="88" filterUnits="userSpaceOnUse" color-interpolation-filters="sRGB"><feFlood flood-opacity="0" result="BackgroundImageFix"/><feColorMatrix in="SourceAlpha" values="0 0 0 0 0 0 0 0 0 0 0 0 0 0 0 0 0 0 127 0"/><feOffset dx="4" dy="4"/><feGaussianBlur stdDeviation="4"/><feColorMatrix values="0 0 0 0 0.65098 0 0 0 0 0.670588 0 0 0 0 0.741176 0 0 0 1 0"/><feBlend in2="BackgroundImageFix" result="effect1_dropShadow"/><feBlend in="SourceGraphic" in2="effect1_dropShadow" result="shape"/></filter><filter id="bfilter1_d" x="10.5" y="55" width="48" height="18" filterUnits="userSpaceOnUse" color-interpolation-filters="sRGB"><feFlood flood-opacity="0" result="BackgroundImageFix"/><feColorMatrix in="SourceAlpha" values="0 0 0 0 0 0 0 0 0 0 0 0 0 0 0 0 0 0 127 0"/><feOffset dx="2" dy="2"/><feGaussianBlur stdDeviation="2"/><feColorMatrix values="0 0 0 0 0 0 0 0 0 0.764706 0 0 0 0 0.407843 0 0 0 0.4 0"/><feBlend in2="BackgroundImageFix" result="effect1_dropShadow"/><feBlend in="SourceGraphic" in2="effect1_dropShadow" result="shape"/></filter></defs></symbol><symbol viewBox="0 0 80 88" id="intro_headset" xmlns="http://www.w3.org/2000/svg"><g filter="url(#cfilter0_d)" stroke-width="2"><path d="M64 43.5V29C64 15.745 53.255 5 40 5h-8C18.745 5 8 15.745 8 29v14.5"/><path d="M13 35c0-12.703 10.297-23 23-23s23 10.297 23 23v8c0 12.703-10.297 23-23 23S13 55.703 13 43v-8z"/><path d="M33.5 74.5H40c13.255 0 24-10.745 24-24V40"/><rect x="5" y="36" width="6" height="14" rx="3"/><rect x="61" y="36" width="6" height="14" rx="3"/></g><defs><filter id="cfilter0_d" x="0" y="0" width="80" height="87.5" filterUnits="userSpaceOnUse" color-interpolation-filters="sRGB"><feFlood flood-opacity="0" result="BackgroundImageFix"/><feColorMatrix in="SourceAlpha" values="0 0 0 0 0 0 0 0 0 0 0 0 0 0 0 0 0 0 127 0"/><feOffset dx="4" dy="4"/><feGaussianBlur stdDeviation="4"/><feColorMatrix values="0 0 0 0 0.65098 0 0 0 0 0.670588 0 0 0 0 0.741176 0 0 0 1 0"/><feBlend in2="BackgroundImageFix" result="effect1_dropShadow"/><feBlend in="SourceGraphic" in2="effect1_dropShadow" result="shape"/></filter></defs></symbol><symbol viewBox="0 0 113 103" id="intro_mouse" xmlns="http://www.w3.org/2000/svg"><g filter="url(#dfilter0_d)" stroke-width="2"><path d="M19.16 65.542c-5.857-5.858-5.857-15.355 0-21.213l25.554-25.553c5.858-5.858 15.355-5.858 21.213 0l4.448 4.448c6.364 6.364 5.74 16.899-1.145 22.78-3.85 3.29-7.849 6.845-11.044 10.005-3.74 3.7-7.974 8.436-11.789 12.888-5.884 6.866-16.406 7.475-22.762 1.119l-4.474-4.474z"/><path d="M17.136 63.287c-5.37-5.37-5.871-13.882-1.01-19.666 4.383-5.212 9.662-11.246 14.176-15.71 3.978-3.935 9.252-8.521 13.933-12.44 5.785-4.842 14.285-4.332 19.647 1.03l.4.4c6.365 6.364 5.74 16.899-1.145 22.78-3.85 3.29-7.848 6.845-11.043 10.005-3.74 3.7-7.975 8.436-11.79 12.888-5.883 6.866-16.406 7.475-22.762 1.12l-.406-.407z"/><rect x="38.152" y="30.767" width="15.665" height="15.665" rx="7.833" transform="rotate(-45 38.152 30.767)"/><rect x="73.5" y="68" width="26" height="22" rx="1"/><path d="M75.5 45c7 2 11 5 11 15.999"/></g><defs><filter id="dfilter0_d" x=".615" y="0" width="111.885" height="103" filterUnits="userSpaceOnUse" color-interpolation-filters="sRGB"><feFlood flood-opacity="0" result="BackgroundImageFix"/><feColorMatrix in="SourceAlpha" values="0 0 0 0 0 0 0 0 0 0 0 0 0 0 0 0 0 0 127 0"/><feOffset dx="4" dy="4"/><feGaussianBlur stdDeviation="4"/><feColorMatrix values="0 0 0 0 0.65098 0 0 0 0 0.670588 0 0 0 0 0.741176 0 0 0 1 0"/><feBlend in2="BackgroundImageFix" result="effect1_dropShadow"/><feBlend in="SourceGraphic" in2="effect1_dropShadow" result="shape"/></filter></defs></symbol><symbol viewBox="0 0 40 26" id="quotes" xmlns="http://www.w3.org/2000/svg"><path d="M19.48 16.543c0 5.223-4.348 9.457-9.713 9.457-5.365 0-9.26-4.088-9.714-9.293C-.64 8.765 5.556 2.116 13.08 0c-2.564 1.51-4.353 4.135-4.651 7.189a9.7 9.7 0 011.339-.104c5.365 0 9.713 4.234 9.713 9.457zm20.52 0C40 21.765 35.652 26 30.286 26c-5.365 0-9.26-4.088-9.714-9.293C19.878 8.765 26.075 2.116 33.599 0c-2.565 1.51-4.353 4.135-4.652 7.189a9.75 9.75 0 011.339-.104c5.366 0 9.714 4.234 9.714 9.457z"/></symbol></svg>